<svg width="20" height="20" viewBox="0 0 20 20" fill="none" xmlns="http://www.w3.org/2000/svg">
<path fill-rule="evenodd" clip-rule="evenodd" d="M13.6306 17.6372H6.33034C5.73046 17.6372 5.25338 17.6372 4.86846 17.6058C4.47432 17.5736 4.13821 17.5062 3.83046 17.3494C3.33361 17.0962 2.92965 16.6923 2.67648 16.1954C2.51967 15.8877 2.45232 15.5516 2.42011 15.1574C2.38865 14.7725 2.38867 14.2954 2.38867 13.6956V6.39524C2.38867 5.79538 2.38865 5.3183 2.42011 4.93341C2.45232 4.53926 2.51967 4.20316 2.67648 3.89541C2.92965 3.39855 3.33361 2.99459 3.83046 2.74143C4.13821 2.58461 4.47432 2.51726 4.86846 2.48505C5.25336 2.45359 5.73044 2.45361 6.3303 2.45361H13.6306C14.2305 2.45361 14.7076 2.45359 15.0925 2.48505C15.4866 2.51726 15.8227 2.58461 16.1305 2.74143C16.6273 2.99459 17.0313 3.39855 17.2844 3.89541C17.4413 4.20316 17.5086 4.53926 17.5408 4.93341C17.5723 5.31832 17.5723 5.79541 17.5723 6.39528V13.6955C17.5723 14.2954 17.5723 14.7725 17.5408 15.1574C17.5086 15.5516 17.4413 15.8877 17.2844 16.1954C17.0313 16.6923 16.6273 17.0962 16.1305 17.3494C15.8227 17.5062 15.4866 17.5736 15.0925 17.6058C14.7075 17.6372 14.2305 17.6372 13.6306 17.6372ZM15.0208 16.7285C15.3605 16.7007 15.5679 16.6482 15.7308 16.5651C16.0621 16.3963 16.3314 16.127 16.5002 15.7958C16.5832 15.6328 16.6358 15.4254 16.6635 15.0857C16.6917 14.7409 16.692 14.2997 16.692 13.6763V6.41455C16.692 5.79107 16.6917 5.34995 16.6635 5.00509C16.6358 4.66536 16.5832 4.45799 16.5002 4.29503C16.3314 3.96378 16.0621 3.69447 15.7308 3.5257C15.5679 3.44266 15.3605 3.39009 15.0208 3.36234C14.6759 3.33415 14.2348 3.33382 13.6113 3.33382H6.34961C5.72613 3.33382 5.28501 3.33415 4.94015 3.36234C4.60042 3.39009 4.39305 3.44266 4.23009 3.5257C3.89884 3.69447 3.62953 3.96378 3.46076 4.29503C3.37771 4.45799 3.32515 4.66536 3.2974 5.00509C3.26921 5.34995 3.26888 5.79107 3.26888 6.41455V13.6763C3.26888 14.2997 3.26921 14.7409 3.2974 15.0857C3.32515 15.4254 3.37771 15.6328 3.46076 15.7958C3.62953 16.127 3.89884 16.3963 4.23009 16.5651C4.39305 16.6482 4.60042 16.7007 4.94015 16.7285C5.28501 16.7567 5.72613 16.757 6.34961 16.757H13.6113C14.2348 16.757 14.6759 16.7567 15.0208 16.7285Z" fill="black"/>
<path d="M7.4746 12.31C7.01269 12.31 6.62065 12.2227 6.29848 12.048C5.98019 11.8734 5.73758 11.6288 5.57067 11.3144C5.40375 11 5.32031 10.6313 5.32031 10.2081C5.32031 9.88209 5.36883 9.58902 5.46585 9.32896C5.56679 9.065 5.71042 8.84182 5.89673 8.65938C6.08692 8.47307 6.31594 8.32944 6.58377 8.22852C6.85548 8.12761 7.16212 8.07715 7.50371 8.07715C7.71331 8.07715 7.92292 8.10044 8.13254 8.147C8.34215 8.19359 8.54398 8.27123 8.73806 8.3799C8.81958 8.42648 8.87392 8.48665 8.90108 8.5604C8.93215 8.63027 8.93992 8.70596 8.92438 8.78748C8.91273 8.86511 8.88169 8.93498 8.83123 8.99709C8.78465 9.05531 8.72254 9.09413 8.6449 9.11352C8.57115 9.12906 8.48575 9.11352 8.38871 9.06696C8.26062 8.99709 8.12477 8.94663 7.98115 8.91556C7.83752 8.88063 7.68033 8.86317 7.50954 8.86317C7.23394 8.86317 7.00298 8.91557 6.81667 9.02038C6.63035 9.12129 6.4906 9.27267 6.39746 9.47452C6.30817 9.67248 6.26354 9.91702 6.26354 10.2081C6.26354 10.6468 6.36833 10.9786 6.57794 11.2038C6.79144 11.4289 7.10585 11.5415 7.52119 11.5415C7.66092 11.5415 7.80454 11.5279 7.95204 11.5007C8.09954 11.4735 8.2451 11.4347 8.38871 11.3843L8.21988 11.7511V10.6332H7.69585C7.5794 10.6332 7.49013 10.6041 7.42802 10.5459C7.36592 10.4876 7.33485 10.408 7.33485 10.3071C7.33485 10.2023 7.36592 10.1228 7.42802 10.0684C7.49013 10.0102 7.5794 9.98106 7.69585 9.98106H8.60998C8.72642 9.98106 8.81375 10.0121 8.87198 10.0742C8.93408 10.1363 8.96515 10.2256 8.96515 10.3421V11.6929C8.96515 11.7938 8.94573 11.8792 8.90692 11.949C8.8681 12.0189 8.8021 12.0694 8.70896 12.1004C8.53427 12.1625 8.33825 12.213 8.1209 12.2518C7.90352 12.2906 7.68808 12.31 7.4746 12.31Z" fill="black"/>
<path d="M10.2183 12.2985C10.0708 12.2985 9.95824 12.2577 9.88062 12.1762C9.80297 12.0947 9.76416 11.9802 9.76416 11.8327V8.55466C9.76416 8.40716 9.80297 8.29264 9.88062 8.21114C9.95824 8.12962 10.0708 8.08887 10.2183 8.08887C10.3619 8.08887 10.4726 8.12962 10.5502 8.21114C10.6278 8.29264 10.6666 8.40716 10.6666 8.55466V11.8327C10.6666 11.9802 10.6278 12.0947 10.5502 12.1762C10.4764 12.2577 10.3658 12.2985 10.2183 12.2985Z" fill="black"/>
<path d="M11.9526 12.2983C11.8051 12.2983 11.6906 12.2576 11.6091 12.1761C11.5315 12.0945 11.4927 11.9761 11.4927 11.8209V8.61274C11.4927 8.46134 11.5334 8.3449 11.6149 8.26338C11.6964 8.18186 11.8129 8.14111 11.9643 8.14111H13.9556C14.072 8.14111 14.1593 8.17216 14.2176 8.23428C14.2797 8.29249 14.3107 8.37788 14.3107 8.49045C14.3107 8.6069 14.2797 8.69618 14.2176 8.75828C14.1593 8.81651 14.072 8.84563 13.9556 8.84563H12.3951V9.84707H13.8275C13.9439 9.84707 14.0332 9.87813 14.0953 9.94024C14.1574 9.99847 14.1884 10.0839 14.1884 10.1964C14.1884 10.309 14.1574 10.3963 14.0953 10.4584C14.0332 10.5205 13.9439 10.5516 13.8275 10.5516H12.3951V11.8209C12.3951 12.1392 12.2476 12.2983 11.9526 12.2983Z" fill="black"/>
</svg>
